<?xml version="1.0" encoding="utf-8" ?><svg xmlns="http://www.w3.org/2000/svg" xmlns:xlink="http://www.w3.org/1999/xlink" width="2694" height="504" viewBox="0 0 2694 504"><defs><linearGradient id="gradient_0" gradientUnits="userSpaceOnUse" x1="1533.3162" y1="248.85428" x2="1598.0192" y2="24.636927"><stop offset="0" stop-color="#B4B4B4"/><stop offset="1" stop-color="#E3E4E3"/></linearGradient></defs><path fill="url(#gradient_0)" d="M1428.94 10.5673C1455 9.26597 1484.52 10.0428 1510.88 9.93116C1571.73 9.67362 1633.61 6.76325 1682.26 50.3248C1695.97 62.6015 1713.8 87.055 1715 105.849C1722.34 145.907 1720.64 192.042 1702.81 229.272C1698.79 238.616 1693.58 246.5 1687.94 254.924C1639.28 329.135 1535.61 370.011 1453.16 391.16C1452.45 391.341 1451.49 391.446 1450.75 391.526C1453.5 390.191 1457.14 388.018 1459.89 386.49L1456.66 384.707L1456.54 382.953C1464.89 368.291 1474.53 353.814 1482.91 339.016C1486.1 333.398 1503.2 299.401 1506.71 297.512C1524.13 288.144 1544.73 280.911 1562.98 272.536C1566.92 269.584 1573.26 266.855 1576.23 263.11L1575.94 262.078L1571.67 261.576C1581.17 256.093 1589.55 251.284 1598.63 245.055C1605.72 240.568 1609.52 237.81 1615.99 232.474C1626.18 224.453 1639.03 212.676 1646.68 202.15C1633.22 209.558 1619.13 219.135 1605.74 227.126C1591.76 235.469 1579.68 241.592 1564.97 248.584C1556.74 250.594 1529.22 265.963 1522.81 262.56C1522.25 260.395 1522.14 259.037 1523.38 256.966C1536.63 234.791 1549.54 212.23 1560.63 188.878C1565.98 177.595 1567.36 169.631 1570.1 157.89C1572.05 150.373 1572.71 133.977 1571.42 126.262C1571.59 122.122 1568.83 107.836 1568.12 102.207L1562.74 84.6664C1560.97 89.5087 1559.35 95.2002 1557.79 100.174C1555.71 106.873 1554.39 113.605 1552.48 120.34C1547.65 136.531 1540.56 161.249 1533.8 176.372C1516.76 214.478 1494.57 251.516 1472.69 286.945L1398.73 405.42C1390.93 417.79 1382.07 430.325 1374.52 442.647L1372.91 444.342L1371.87 443.496C1371.47 440.705 1385.27 372.483 1386.78 364.709C1394.99 324.152 1402.03 283.365 1407.89 242.4C1410.18 227.208 1411.2 207.853 1413.97 193.459C1417 163.765 1419.8 134.047 1422.37 104.31C1423.59 90.6113 1424.06 74.0722 1425.95 60.8684C1426.89 44.069 1428.28 27.3826 1428.94 10.5673Z"/><defs><linearGradient id="gradient_1" gradientUnits="userSpaceOnUse" x1="1567.9669" y1="390.79996" x2="1589.1149" y2="197.3019"><stop offset="0" stop-color="#818280"/><stop offset="1" stop-color="#C1C0C0"/></linearGradient></defs><path fill="url(#gradient_1)" d="M1562.98 272.536C1575.22 272.421 1615.13 242.373 1627.1 234.303C1634.63 229.227 1643.82 219.372 1652.05 213.193C1661.22 206.314 1672.94 212.086 1683.48 211.205C1683.09 211.237 1687.89 208.547 1688.22 208.382L1688.91 210.795C1689.88 211.97 1692.83 212.265 1694.47 212.579C1698.23 218.186 1694.99 220.87 1694.32 228.714C1696.38 226.392 1699.38 221.918 1701.73 221.67C1703.06 224.471 1702.83 226.204 1702.81 229.272C1698.79 238.616 1693.58 246.5 1687.94 254.924C1639.28 329.135 1535.61 370.011 1453.16 391.16C1452.45 391.341 1451.49 391.446 1450.75 391.526C1453.5 390.191 1457.14 388.018 1459.89 386.49L1456.66 384.707L1456.54 382.953C1464.89 368.291 1474.53 353.814 1482.91 339.016C1486.1 333.398 1503.2 299.401 1506.71 297.512C1524.13 288.144 1544.73 280.911 1562.98 272.536Z"/><path fill="#BFBFBF" d="M1694.32 228.714C1696.38 226.392 1699.38 221.918 1701.73 221.67C1703.06 224.471 1702.83 226.204 1702.81 229.272C1698.79 238.616 1693.58 246.5 1687.94 254.924L1683.8 254.484L1683.11 252.922C1684.2 245.767 1691.23 236.42 1694.32 228.714Z"/><defs><linearGradient id="gradient_2" gradientUnits="userSpaceOnUse" x1="1438.3622" y1="406.97769" x2="1445.9202" y2="210.69002"><stop offset="0" stop-color="#616160"/><stop offset="1" stop-color="#9A9A9A"/></linearGradient></defs><path fill="url(#gradient_2)" d="M1501.65 223.197C1503.52 221.411 1507.54 212.631 1509.71 209.519C1525.22 187.248 1532.38 160.923 1539.96 135.044C1544.05 121.108 1545.94 105.588 1552.71 91.6661C1553.99 89.0429 1554.88 89.1912 1557.34 88.472C1557.74 90.5817 1557.74 97.6585 1557.79 100.174C1555.71 106.873 1554.39 113.605 1552.48 120.34C1547.65 136.531 1540.56 161.249 1533.8 176.372C1516.76 214.478 1494.57 251.516 1472.69 286.945L1398.73 405.42C1390.93 417.79 1382.07 430.325 1374.52 442.647L1372.91 444.342L1371.87 443.496C1371.47 440.705 1385.27 372.483 1386.78 364.709C1394.99 324.152 1402.03 283.365 1407.89 242.4C1410.18 227.208 1411.2 207.853 1413.97 193.459C1415.08 203.138 1413.53 211.458 1414.54 221.927C1415.55 220.377 1415.59 219.949 1415.99 218.178C1417.83 216.142 1424.94 210.319 1427.48 210.665C1443.08 212.793 1458.49 217.108 1474.14 219.33C1483.71 220.837 1489.63 219.385 1497.83 221.34C1498.96 221.609 1498.95 221.639 1500.11 221.676C1500.79 222.163 1501.35 222.437 1501.65 223.197Z"/><path fill="#DCDDDB" d="M1501.65 223.197C1503.52 221.411 1507.54 212.631 1509.71 209.519C1525.22 187.248 1532.38 160.923 1539.96 135.044C1544.05 121.108 1545.94 105.588 1552.71 91.6661C1553.99 89.0429 1554.88 89.1912 1557.34 88.472C1557.74 90.5817 1557.74 97.6585 1557.79 100.174C1555.71 106.873 1554.39 113.605 1552.48 120.34C1547.65 136.531 1540.56 161.249 1533.8 176.372C1516.76 214.478 1494.57 251.516 1472.69 286.945L1398.73 405.42C1390.93 417.79 1382.07 430.325 1374.52 442.647L1373.45 442.329L1372.89 440.023C1374.68 433.77 1377.74 416.873 1380.81 412.7C1381.89 412.857 1382.98 413.045 1384.05 412.758C1390.87 410.925 1490.57 242.878 1501.65 223.197Z"/><path fill="#DCDDDB" d="M1428.94 10.5673C1455 9.26597 1484.52 10.0428 1510.88 9.93116C1571.73 9.67362 1633.61 6.76325 1682.26 50.3248C1695.97 62.6015 1713.8 87.055 1715 105.849C1713.54 117.301 1715.16 133.205 1715.19 145.024C1715.22 154.884 1714.4 163.375 1713.33 173.161L1712.51 172.418C1712.69 171.532 1711.67 146.086 1711.61 143.236C1711.06 116.677 1697.17 75.0632 1675.45 57.8584C1621.48 15.1004 1506.11 15.9974 1441.86 19.1009C1432.89 31.841 1429.63 93.723 1426.39 114.283C1426.56 104.515 1426.9 69.1866 1425.95 60.8684C1426.89 44.069 1428.28 27.3826 1428.94 10.5673Z"/><path fill="#DCDDDB" d="M1568.12 102.207C1568.23 100.164 1568.31 85.4644 1568.38 85.2981C1584.78 90.003 1576.53 132.894 1579.93 145.448L1578.3 146.657C1578.62 151.19 1579.67 157.486 1577.17 160.919C1572.64 167.148 1576.38 167.829 1570.61 173.42C1569.9 167.56 1570.8 162.807 1570.1 157.89C1572.05 150.373 1572.71 133.977 1571.42 126.262C1571.59 122.122 1568.83 107.836 1568.12 102.207Z"/><defs><linearGradient id="gradient_3" gradientUnits="userSpaceOnUse" x1="469.23837" y1="370.09467" x2="536.28223" y2="115.65231"><stop offset="0" stop-color="#606061"/><stop offset="1" stop-color="#A5A5A5"/></linearGradient></defs><path fill="url(#gradient_3)" d="M367.317 14.4871C381.326 13.7567 399.913 14.2874 414.361 14.2611L508.472 14.2412L593.589 14.2977C609.859 14.3184 630.683 13.9435 646.676 14.9976C652.677 18.5894 648.763 63.7729 650.297 73.219C652.188 84.861 611.32 78.9326 601.412 80.047C582.862 82.1336 454.336 76.5139 445.853 81.6957C444.055 85.016 444.54 90.9246 444.556 94.8966C444.187 111.461 443.871 135.293 444.736 151.873C488.122 153.101 532.973 151.469 576.457 152.118C593.11 152.366 613.687 151.395 629.954 152.427C631.277 165.961 630.399 196.292 630.407 211.048C623.45 215.775 468.923 210.346 444.759 213.331C443.839 231.216 443.701 270.099 444.974 287.726C496.553 288.688 548.901 287.462 600.527 287.951C608.97 288.03 649.704 287.27 654.96 288.665C654.905 306.908 654.089 336.882 655.446 354.074C652.453 356.059 609.973 355.248 602.029 355.24L510.885 355.232L422.42 355.228C414.372 355.224 371.833 356.672 367.431 352.684C364.489 343.254 366.325 255.644 366.369 239.355L366.659 96.8181C366.733 69.9769 366.383 41.1519 367.317 14.4871Z"/><defs><linearGradient id="gradient_4" gradientUnits="userSpaceOnUse" x1="467.6102" y1="148.62572" x2="530.69739" y2="-17.78376"><stop offset="0" stop-color="#959595"/><stop offset="1" stop-color="#C5C4C4"/></linearGradient></defs><path fill="url(#gradient_4)" d="M646.676 14.9976C652.677 18.5894 648.763 63.7729 650.297 73.219C652.188 84.861 611.32 78.9326 601.412 80.047C582.862 82.1336 454.336 76.5139 445.853 81.6957C444.055 85.016 444.54 90.9246 444.556 94.8966L442.517 97.2258C441.685 96.6621 440.931 96.536 439.936 96.4888C438.334 100.217 436.27 130.05 437.017 132.816L435.977 133.632C433.933 131.238 433.641 105.988 430.717 98.2223C429.221 97.1857 426.874 97.4383 424.976 97.4438C424.345 96.5655 422.81 94.8372 422.372 94.071C420.831 91.3749 415.504 98.432 414.833 98.1595C410.091 96.2348 403.57 90.3482 398.416 90.2237L395.608 93.5469L394.412 92.5302C403.488 81.8188 387.892 86.0843 382.969 76.0517L381.626 75.7148C381.354 75.8793 381.088 76.053 380.829 76.2357C374.389 80.7842 373.008 103.597 371.579 112.344C371.225 109.658 371.494 89.6529 371.489 85.6207C371.35 65.4593 371.408 45.2971 371.66 25.1368C377.163 18.6082 439.748 19.4762 451.197 19.4648L560.074 19.4643C573.357 19.3658 585.525 18.0424 599.325 17.669C613.011 17.2987 629.683 18.1171 643.551 17.1737C644.814 16.2944 645.855 15.569 646.676 14.9976Z"/><path fill="#BFBFBF" d="M435.977 133.632L437.017 132.816C436.27 130.05 438.334 100.217 439.936 96.4888C440.931 96.536 441.685 96.6621 442.517 97.2258L444.556 94.8966C444.187 111.461 443.871 135.293 444.736 151.873C488.122 153.101 532.973 151.469 576.457 152.118C593.11 152.366 613.687 151.395 629.954 152.427C631.277 165.961 630.399 196.292 630.407 211.048C612.512 210.074 593.559 210.498 576.375 209.25C584.679 208.288 609.649 209.736 616.251 205.46C621.422 202.11 617.165 187.343 615.995 182.065C613.955 172.872 607.503 175.257 601.854 170.179L602.554 167.761C587.269 161.724 554.38 161.132 537.46 160.609C526.799 160.28 510.332 161.815 500.56 159.833L500.311 159.781C484.872 158.224 461.006 161.053 443.253 158.466C437.919 152.922 436.917 141.004 435.977 133.632Z"/><path fill="#9A9A99" d="M629.954 152.427C631.277 165.961 630.399 196.292 630.407 211.048C612.512 210.074 593.559 210.498 576.375 209.25C584.679 208.288 609.649 209.736 616.251 205.46C621.422 202.11 617.165 187.343 615.995 182.065C613.955 172.872 607.503 175.257 601.854 170.179L602.554 167.761C587.269 161.724 554.38 161.132 537.46 160.609C526.799 160.28 510.332 161.815 500.56 159.833L500.311 159.781C495.445 158.473 483.502 159.15 477.937 159.123C469.413 159.083 459.261 158.378 450.937 156.437C503.676 155.448 557.999 157.845 610.84 158.569C631.405 158.851 621.852 197.47 623.318 208.966C625.479 210.086 624.621 210.006 626.929 209.677C630.164 204.861 623.777 162.133 629.954 152.427Z"/><path fill="#DCDDDB" d="M440.897 293.454C439.606 276.642 439.724 243.783 441.55 226.801C442.983 229.281 442.813 281.43 443.202 289.159L580.179 289.267C599.296 289.289 637.271 290.371 654.96 288.665C654.905 306.908 654.089 336.882 655.446 354.074C649.771 352.595 595.264 353.023 586.305 352.986L433.979 351.53C414 351.288 390.393 352.385 370.869 351.337L370.172 349.948C372.671 348.944 408.578 349.487 414.405 349.479L563.46 349.349C586.729 349.367 626.808 350.454 648.807 348.414C649.031 330.596 649.063 312.776 648.904 294.957C629.231 293.268 602.396 294.519 581.989 294.359C535.054 293.99 487.811 294.966 440.897 293.454Z"/><defs><linearGradient id="gradient_5" gradientUnits="userSpaceOnUse" x1="1318.7666" y1="259.88315" x2="1112.4965" y2="88.004463"><stop offset="0" stop-color="#A3A3A2"/><stop offset="1" stop-color="#CFCFCF"/></linearGradient></defs><path fill="url(#gradient_5)" d="M1102.03 14.6676C1190.83 13.132 1280.14 15.663 1369.01 14.6457C1369.79 32.4283 1368.51 61.3354 1368.28 79.9172C1349.27 80.5773 1333.14 81.0666 1314.19 83.0586C1286.17 83.7968 1258.13 84.1467 1230.1 84.1079C1220.86 84.1111 1192.52 83.4754 1184.57 84.6233C1182.96 86.9299 1182.86 87.4876 1182.3 90.2716L1182.37 90.5526C1184.56 100.02 1180.46 153.946 1185.43 157.121C1190.98 160.671 1334.6 157.577 1356.17 158.054C1356.18 179.738 1356.06 201.421 1355.81 223.103C1324.08 223.746 1272.67 225.357 1241.71 223.861C1224.88 224.309 1199.92 223.173 1184.23 224.641C1183.6 254.471 1184.51 284.659 1184.31 314.503C1184.23 327.025 1184.86 342.477 1184.15 354.733C1160.11 355.198 1125.47 356.001 1102.03 354.785C1100.4 322.834 1101.76 275.476 1102.17 242.571C1101.94 231.504 1102.01 220.11 1102.07 209.034C1102.46 144.329 1100.96 79.338 1102.03 14.6676Z"/><defs><linearGradient id="gradient_6" gradientUnits="userSpaceOnUse" x1="1296.9186" y1="128.28925" x2="1153.9611" y2="-24.841301"><stop offset="0" stop-color="#BBBBBA"/><stop offset="1" stop-color="#E7E6E6"/></linearGradient></defs><path fill="url(#gradient_6)" d="M1102.03 14.6676C1190.83 13.132 1280.14 15.663 1369.01 14.6457C1369.79 32.4283 1368.51 61.3354 1368.28 79.9172C1349.27 80.5773 1333.14 81.0666 1314.19 83.0586C1286.17 83.7968 1258.13 84.1467 1230.1 84.1079C1220.86 84.1111 1192.52 83.4754 1184.57 84.6233C1182.96 86.9299 1182.86 87.4876 1182.3 90.2716C1180.14 94.8154 1182.24 135.865 1181.32 143.852C1180.66 149.625 1180.42 151.433 1178.7 157.628C1177.27 142.796 1175.45 110.697 1168.66 97.4434C1164.75 89.8113 1154.67 97.4181 1145.7 95.6768L1144.36 92.7094C1130.96 93.8992 1123.7 84.9607 1116.5 85.5301C1113.11 88.3529 1112.42 97.6554 1107.41 105.821C1106.68 104.618 1106.73 27.8236 1104.74 16.4883C1103.65 23.2419 1104.2 39.9199 1104.25 47.33C1104.46 66.6909 1104.54 86.0529 1104.49 105.415L1104.57 194.918C1104.58 202.321 1106.03 238.371 1102.17 242.571C1101.94 231.504 1102.01 220.11 1102.07 209.034C1102.46 144.329 1100.96 79.338 1102.03 14.6676Z"/><path fill="#9A9A99" d="M1102.03 14.6676C1190.83 13.132 1280.14 15.663 1369.01 14.6457C1369.79 32.4283 1368.51 61.3354 1368.28 79.9172C1349.27 80.5773 1333.14 81.0666 1314.19 83.0586C1323.27 75.2552 1343.55 78.2739 1354.12 75.3945C1350.83 72.1458 1348.45 71.7428 1346.85 67.904C1346.86 62.4056 1353.8 49.0146 1359.08 48.3145L1360.41 51.864L1361.56 52.202C1367.65 37.9706 1362.25 39.1177 1364.38 26.8854C1364.84 24.2125 1366.39 20.5619 1365.08 18.1884C1360.5 17.2747 1346.51 17.527 1341.26 17.4897L1297.34 17.0865L1104.74 16.4883C1103.65 23.2419 1104.2 39.9199 1104.25 47.33C1104.46 66.6909 1104.54 86.0529 1104.49 105.415L1104.57 194.918C1104.58 202.321 1106.03 238.371 1102.17 242.571C1101.94 231.504 1102.01 220.11 1102.07 209.034C1102.46 144.329 1100.96 79.338 1102.03 14.6676Z"/><defs><linearGradient id="gradient_7" gradientUnits="userSpaceOnUse" x1="1130.3975" y1="348.36124" x2="1155.885" y2="186.10826"><stop offset="0" stop-color="#80807F"/><stop offset="1" stop-color="#B7B6B6"/></linearGradient></defs><path fill="url(#gradient_7)" d="M1104.49 105.415L1104.63 105.835C1108.23 116.81 1105.65 168.887 1106.78 183.524C1107.22 189.127 1106.01 196.319 1107.63 202.699L1108.6 203.056C1107.14 197.365 1110.74 188.873 1113.78 183.909C1114.46 182.81 1115.24 181.779 1116.12 180.829C1119.59 180.842 1126.55 191.043 1133.94 193.566C1150.16 199.103 1173.07 205.819 1189.74 208.201C1192.09 213.116 1184.48 217.709 1182.4 222.711C1189.83 222.832 1239.22 221.452 1241.71 223.861C1224.88 224.309 1199.92 223.173 1184.23 224.641C1183.6 254.471 1184.51 284.659 1184.31 314.503C1184.23 327.025 1184.86 342.477 1184.15 354.733C1160.11 355.198 1125.47 356.001 1102.03 354.785C1100.4 322.834 1101.76 275.476 1102.17 242.571C1106.03 238.371 1104.58 202.321 1104.57 194.918L1104.49 105.415Z"/><path fill="#BFBFBF" d="M1181.14 228.452C1181.19 228.478 1181.25 228.489 1181.29 228.53C1181.52 228.75 1182.26 229.675 1182.34 229.947C1183.79 235.201 1181.92 274.785 1181.85 284.222C1181.62 306.914 1181.93 329.608 1182.76 352.285L1174.64 350.633L1174.07 349.608L1178.04 347.854C1183.55 337.211 1180.85 286.246 1179.99 272.106C1179.16 258.515 1176.36 243.217 1179.47 229.79L1180.14 230.622L1181.14 228.452Z"/><defs><linearGradient id="gradient_8" gradientUnits="userSpaceOnUse" x1="2545.1782" y1="343.68811" x2="2514.6499" y2="130.05368"><stop offset="0" stop-color="#6E6E6E"/><stop offset="1" stop-color="#A7A7A8"/></linearGradient></defs><path fill="url(#gradient_8)" d="M2318.22 19.0162C2315.95 17.3602 2316.49 18.239 2315.98 15.5861C2319.68 12.8312 2393.56 14.1387 2404.38 14.1845C2423.41 42.8774 2442.13 71.7795 2460.52 100.886C2475.03 123.631 2490.26 146.453 2503.27 170.044C2514.37 153.685 2524.81 134.195 2536.52 118.159C2542.62 106.236 2563.41 77.3405 2571.83 64.4165C2579.83 52.1191 2596.31 25.238 2604.64 14.6061C2631.21 15.5518 2661.29 15.0935 2687.95 14.487C2659.93 58.4393 2628.46 102.527 2599.93 147.166C2586.42 166.901 2573.13 186.787 2560.06 206.82C2552.62 218.329 2540.88 232.978 2540.81 246.652C2540.64 276.718 2540.91 306.81 2541.17 336.877C2541.2 342.552 2542.12 354.253 2534.76 354.441C2524.25 354.709 2472.12 356.919 2466.06 352.901C2463.76 345.487 2464.88 335.393 2464.6 326.721C2463.69 297.874 2467.08 264.693 2463.19 236.508C2462.7 232.934 2452.59 218.975 2450.26 215.07C2426.37 178.865 2401.14 140.586 2376.44 105.049L2339.51 51.0137C2333.11 41.6026 2323.72 28.6389 2318.22 19.0162Z"/><defs><linearGradient id="gradient_9" gradientUnits="userSpaceOnUse" x1="2435.9158" y1="185.82498" x2="2390.605" y2="8.2973309"><stop offset="0" stop-color="#A3A3A5"/><stop offset="1" stop-color="#D8D7D6"/></linearGradient></defs><path fill="url(#gradient_9)" d="M2318.22 19.0162C2315.95 17.3602 2316.49 18.239 2315.98 15.5861C2319.68 12.8312 2393.56 14.1387 2404.38 14.1845C2423.41 42.8774 2442.13 71.7795 2460.52 100.886C2475.03 123.631 2490.26 146.453 2503.27 170.044C2514.37 153.685 2524.81 134.195 2536.52 118.159L2539.31 118.818C2541.21 125.657 2513.48 161.064 2514.76 169.857L2514.41 170.183C2510.88 173.568 2509 178.394 2504.93 179.304C2499.38 178.959 2487.18 166.094 2485.38 166.181C2480.57 166.414 2438.96 168.257 2438.15 169.071C2428.17 179.106 2455.12 204.152 2453.54 213.641C2452.26 214.438 2451.8 214.811 2450.26 215.07C2426.37 178.865 2401.14 140.586 2376.44 105.049L2339.51 51.0137C2333.11 41.6026 2323.72 28.6389 2318.22 19.0162Z"/><path fill="#DCDDDB" d="M2318.22 19.0162C2315.95 17.3602 2316.49 18.239 2315.98 15.5861C2319.68 12.8312 2393.56 14.1387 2404.38 14.1845C2423.41 42.8774 2442.13 71.7795 2460.52 100.886C2475.03 123.631 2490.26 146.453 2503.27 170.044C2506.34 169.861 2509.73 166.019 2511.17 163.469L2511.34 163.179C2511.82 166.177 2507.94 174.406 2504.01 175.64C2498.15 173.63 2444.04 85.1773 2432.93 71.0904C2425.27 61.3884 2409.4 32.9325 2399.72 19.6249C2397.17 21.0144 2356.84 19.0681 2349.97 19.5415C2347.5 19.7115 2335.27 20.5954 2333.89 20.9812C2331.47 21.6586 2329.57 24.6225 2327.2 24.8811C2325.07 25.114 2320.11 20.4467 2318.22 19.0162Z"/><defs><linearGradient id="gradient_10" gradientUnits="userSpaceOnUse" x1="2604.6631" y1="148.70912" x2="2579.0806" y2="29.803738"><stop offset="0" stop-color="#9E9E9F"/><stop offset="1" stop-color="#BFBEBE"/></linearGradient></defs><path fill="url(#gradient_10)" d="M2604.64 14.6061C2631.21 15.5518 2661.29 15.0935 2687.95 14.487C2659.93 58.4393 2628.46 102.527 2599.93 147.166L2599.02 143.72C2596.47 142.505 2595.35 142.313 2592.65 141.73C2592.78 137.039 2601.91 121.921 2598.91 118.579C2594.66 121.133 2592.4 123.164 2588.7 126.362C2587.99 124.677 2587.51 123.241 2586.93 121.504L2585.3 121.699C2581.66 126.587 2578.25 126.793 2571.86 128.742C2567.05 126.278 2569.81 125.203 2565.61 125.551L2561.06 132.139L2559.98 132.204L2558.68 130.214C2552.41 130.522 2542.13 146.88 2535.9 149.832C2535.54 150.002 2531.35 150.431 2530.61 150.529L2532.65 153.636C2529.8 155.941 2529.02 154.272 2528.38 154.814C2523.11 159.249 2520.99 166.721 2514.76 169.857C2513.48 161.064 2541.21 125.657 2539.31 118.818L2536.52 118.159C2542.62 106.236 2563.41 77.3405 2571.83 64.4165C2579.83 52.1191 2596.31 25.238 2604.64 14.6061Z"/><defs><linearGradient id="gradient_11" gradientUnits="userSpaceOnUse" x1="2197.8723" y1="223.56479" x2="2188.7456" y2="20.280792"><stop offset="0" stop-color="#B3B3B4"/><stop offset="1" stop-color="#DCDCDB"/></linearGradient></defs><path fill="url(#gradient_11)" d="M2148.63 15.2758C2172.59 15.1094 2213.83 13.6223 2237.04 15.1719C2259.67 69.6643 2284.07 122.666 2307.61 176.605C2332.27 234.325 2356.6 292.188 2380.59 350.191C2381.75 351.641 2381.42 351.176 2381.39 353.411C2376.67 356.364 2315.35 354.998 2304.98 354.78C2294.86 332.211 2285.41 307.73 2275.8 284.756C2264.53 283.731 2242.64 284.418 2230.45 284.449C2199.52 284.664 2168.6 284.663 2137.68 284.443C2143.02 268.676 2150.33 250.943 2156.77 235.592C2187.69 236.42 2220.36 235.984 2251.41 236.047C2251.91 235.623 2252.67 234.598 2253.11 234.048C2250.95 227.633 2240.85 206.91 2237.37 198.855C2221.92 163.192 2206.12 127.682 2189.97 92.3321C2174.89 130.326 2158.23 167.488 2142.8 205.444C2133.52 196.331 2145.22 181.801 2141.39 171.1C2138.7 169.155 2115.14 171.916 2110.26 170.12C2109.52 169.847 2104.9 169.03 2103.81 168.77C2095.41 172.46 2089.28 178.223 2084.69 186.102C2082.16 179.044 2087.92 171.519 2085.7 163.836C2085.53 163.259 2086.13 158.684 2086.26 157.71C2099.1 126.476 2113.8 95.0716 2126.97 63.8164C2130.58 55.23 2144.64 21.528 2148.63 15.2758Z"/><defs><linearGradient id="gradient_12" gradientUnits="userSpaceOnUse" x1="2252.667" y1="333.72421" x2="2281.926" y2="195.33307"><stop offset="0" stop-color="#7A7A7B"/><stop offset="1" stop-color="#AFAFB0"/></linearGradient></defs><path fill="url(#gradient_12)" d="M2260.13 241.384C2261.15 231.165 2249.07 212.363 2258.63 203.883C2265.92 199.88 2265.49 207.906 2275.83 198.556L2276.61 199.131L2276.8 200.723C2284.85 200.754 2296.52 200.421 2304.14 201.156C2309.33 206.754 2321.66 225.907 2324.37 231.923C2328.74 241.65 2373.64 343.056 2372.79 347.405C2360.85 350.811 2315.16 346.242 2306.16 349.632L2305.71 351.033C2312.29 356.107 2347.09 352.424 2357.39 353.451C2362.02 353.913 2373.14 353.773 2377.93 353.17C2380.12 351.688 2379.58 352.43 2380.59 350.191C2381.75 351.641 2381.42 351.176 2381.39 353.411C2376.67 356.364 2315.35 354.998 2304.98 354.78C2294.86 332.211 2285.41 307.73 2275.8 284.756C2264.53 283.731 2242.64 284.418 2230.45 284.449C2199.52 284.664 2168.6 284.663 2137.68 284.443C2143.02 268.676 2150.33 250.943 2156.77 235.592C2187.69 236.42 2220.36 235.984 2251.41 236.047L2251.18 237.175C2255.99 237.623 2257.03 237.058 2260.13 241.384Z"/><path fill="#DCDDDB" d="M2251.18 237.175C2255.99 237.623 2257.03 237.058 2260.13 241.384C2256.37 243.658 2168.2 242.223 2157.8 241.343C2157.39 238.834 2157.14 239.63 2158.36 237.754C2167.18 236.794 2180.38 237.303 2189.49 237.256C2210.02 237.15 2230.65 237.788 2251.18 237.175Z"/><defs><linearGradient id="gradient_13" gradientUnits="userSpaceOnUse" x1="163.5079" y1="357.5834" x2="187.17757" y2="121.55309"><stop offset="0" stop-color="#515253"/><stop offset="1" stop-color="#939294"/></linearGradient></defs><path fill="url(#gradient_13)" d="M40.8126 14.5684C63.496 13.4577 96.4723 13.9901 119.509 14.6002C120.355 37.607 119.72 63.7522 119.667 86.9369L119.25 216.873C119.162 238.501 118.201 266.745 119.321 287.537C145.691 288.288 173.847 287.823 200.334 287.813L313.246 287.71C313.21 305.65 314.095 337.461 312.873 354.333C287.161 354.452 48.135 356.519 39.6231 353.29C41.3629 333.702 40.0619 288.242 40.0782 267.232L40.2889 93.9273C40.2611 71.5682 39.2018 35.6885 40.8126 14.5684Z"/><path fill="#9A9A99" d="M40.8126 14.5684C63.496 13.4577 96.4723 13.9901 119.509 14.6002C120.355 37.607 119.72 63.7522 119.667 86.9369L119.25 216.873C119.162 238.501 118.201 266.745 119.321 287.537C145.691 288.288 173.847 287.823 200.334 287.813L313.246 287.71C313.21 305.65 314.095 337.461 312.873 354.333C287.161 354.452 48.135 356.519 39.6231 353.29L41.2582 349.514C43.4587 347.801 281.035 348.963 306.51 348.462L306.51 293.229C246.111 294.816 174.499 293.787 114.101 292.443C112.027 243.41 117.045 186.985 107.547 138.815C106.535 133.686 104.507 133.627 99.8773 130.846C99.3606 129.091 99.3076 128.682 99.3208 126.832L99.3261 126.372L97.0643 124.674C93.0934 125.679 95.1799 128.001 91.3447 130.404C84.8176 125.49 81.7047 122.617 74.2642 127.423C71.1883 124.382 74.2957 125.239 72.5403 120.684L70.4088 120.124L68.0335 122.213C62.318 120.047 63.3225 111.627 61.8606 109.156C52.5332 111.45 46.1107 130.707 46.4555 139.456C46.5868 128.075 47.7432 108.085 44.5484 96.5652C44.0646 94.8205 41.8918 94.4512 40.2889 93.9273C40.2611 71.5682 39.2018 35.6885 40.8126 14.5684Z"/><defs><linearGradient id="gradient_14" gradientUnits="userSpaceOnUse" x1="934.91602" y1="459.10065" x2="939.0874" y2="515.45502"><stop offset="0" stop-color="#979898"/><stop offset="1" stop-color="#D4D2CF"/></linearGradient></defs><path fill="url(#gradient_14)" d="M126.477 464.238C205.208 463.026 286.612 464.159 365.526 464.169L830.815 464.146L1160.43 464.315L1274.73 464.355C1293.37 464.376 1315.3 463.887 1333.63 464.557C1329.61 471.398 1320.93 485.304 1317.76 492.088C1247.33 493.54 1174.08 492.171 1103.38 492.239L626.742 492.183L294.873 491.96L183.401 491.906C166.151 491.897 144.285 492.573 127.637 491.813C123.411 491.946 118.77 491.933 114.539 491.854C80.8316 491.23 46.4284 492.897 12.7885 491.577C12.9037 482.314 12.9313 473.829 13.8906 464.575C24.7945 463.816 41.0429 464.253 52.2457 464.218L126.477 464.238Z"/><path fill="#888787" d="M13.8906 464.575C24.7945 463.816 41.0429 464.253 52.2457 464.218L126.477 464.238C137.541 465.512 160.25 464.944 172.312 464.945L255.278 464.908L529.27 464.949L601.453 464.886C609.821 464.881 630.974 464.436 638.163 465.507C654.892 465.486 833.515 465.798 837.179 468.401C827.377 472.34 800.348 467.518 798.154 472.773C803.548 474.911 805.561 473.365 809.298 476.529C801.708 487.349 732.68 484.041 716.684 484.804C736.975 480.802 754.675 479.974 775.25 479.745C747.968 478.627 719.956 480.539 692.573 480.427C562.03 479.896 431.846 486.833 301.261 484.508C263.812 483.841 223.547 486.282 186.58 484.172C181.111 485.258 173.843 484.604 168.278 484.161C150.115 485.865 131.843 485.305 113.629 485.73C82.6025 486.455 51.7182 487.5 20.7152 488.87C25.0384 490.318 117.641 490.61 127.887 490.597L127.637 491.813C123.411 491.946 118.77 491.933 114.539 491.854C80.8316 491.23 46.4284 492.897 12.7885 491.577C12.9037 482.314 12.9313 473.829 13.8906 464.575Z"/><path fill="#9A9A99" d="M638.163 465.507C654.892 465.486 833.515 465.798 837.179 468.401C827.377 472.34 800.348 467.518 798.154 472.773C803.548 474.911 805.561 473.365 809.298 476.529C801.708 487.349 732.68 484.041 716.684 484.804C736.975 480.802 754.675 479.974 775.25 479.745C780.152 478.708 793.309 477.154 797.747 479.624L798.052 479.797L799.393 478.475L799.326 476.64C795.271 473.406 779.223 474.873 773.196 474.708C695.906 473.048 618.598 472.437 541.292 472.875L194.383 470.616C177.612 470.48 56.7581 471.594 51.7553 467.533C55.2629 464.181 251.796 465.489 266.978 465.489L638.163 465.507Z"/><path fill="#4C4B4D" d="M19.4472 471.48L293.939 473.078C345.847 473.267 398.095 472.233 449.969 473.819C452.641 473.901 467.907 474.985 469.35 475.995C465.554 480.116 443.625 479.692 437.566 479.94C386.068 482.041 334.923 482.875 283.382 482.997L218.582 483.236C208.765 483.281 195.928 481.796 186.58 484.172C181.111 485.258 173.843 484.604 168.278 484.161C147.593 479.646 27.1411 489.843 19.4649 482.826C17.5874 479.465 18.9089 475.119 19.4472 471.48Z"/><path fill="#BFBFBF" d="M186.58 484.172C223.547 486.282 263.812 483.841 301.261 484.508C431.846 486.833 562.03 479.896 692.573 480.427C719.956 480.539 747.968 478.627 775.25 479.745C754.675 479.974 736.975 480.802 716.684 484.804C711.092 483.656 641.084 485.072 638.978 486.423C638.919 486.46 638.865 486.504 638.809 486.544C641.105 488.366 648.882 487.686 651.967 487.765C626.188 488.176 600.405 488.293 574.623 488.118C569.848 488.097 565.045 487.279 560.294 487.327C558.936 487.34 558.293 487.78 557.393 488.712L724.48 488.652C750.671 488.816 776.929 487.949 803.084 489.309C779.711 490.982 755.779 489.69 732.311 489.673C691.915 490.043 651.517 490.117 611.12 489.897C510.465 490.663 409.808 490.876 309.151 490.534L189.475 490.527C168.996 490.526 148.349 489.973 127.887 490.597C117.641 490.61 25.0384 490.318 20.7152 488.87C51.7182 487.5 82.6025 486.455 113.629 485.73C131.843 485.305 150.115 485.865 168.278 484.161C173.843 484.604 181.111 485.258 186.58 484.172Z"/><path fill="#9A9A99" d="M810.67 474.26C813.91 474.377 817.136 474.252 820.043 475.877L820.482 477.536L818.006 479.905C816.799 480.196 815.266 480.63 814.039 480.356C811.559 479.804 811.133 478.908 809.794 476.94L810.67 474.26Z"/><defs><linearGradient id="gradient_15" gradientUnits="userSpaceOnUse" x1="862.04437" y1="227.00365" x2="934.19727" y2="30.51845"><stop offset="0" stop-color="#ABABAB"/><stop offset="1" stop-color="#DFDFDE"/></linearGradient></defs><path fill="url(#gradient_15)" d="M833.223 13.9664C862.186 13.9887 893.34 13.5761 922.158 14.6589C945.716 68.8829 970.122 126.895 994.542 180.241C994.311 180.984 993.553 183.851 993.149 184.071C989.248 186.196 989.306 189.513 987.792 191.427C981.818 181.45 977.037 176.458 969.579 167.67L967.038 167.326C966.05 169.05 966.183 169.452 966.433 171.436L965.575 171.907L961.919 167.837L960.15 168.249L958.983 171.587C950.42 172.078 940.756 171.435 932.102 171.061C931.684 172.382 932.048 172.985 932.489 174.317C931.852 175.931 928.89 179.486 928.652 180.585C926.726 189.476 942.387 229.591 939.794 232.399C939.302 232.932 938.897 233.368 938.21 233.656C937.97 233.756 937.917 233.768 937.692 233.838C924.555 202.239 911.167 170.746 897.53 139.36C892.929 128.714 883.113 104.142 877.736 94.9372L876.283 94.734C872.05 99.8677 860.415 127.965 857.094 135.758L818.907 227.298C813.542 240.118 807.398 256.057 801.615 268.237C789.757 296.427 778.681 327.283 765.997 354.916C756.429 355.41 698.869 356.14 692.381 354.003C690.645 346.226 742.675 225.834 749.207 210.732C750.774 205.907 756.858 192.794 759.091 187.584L785.797 126.859C802.14 89.4432 816.649 51.0658 833.223 13.9664Z"/><defs><linearGradient id="gradient_16" gradientUnits="userSpaceOnUse" x1="749.35938" y1="351.63232" x2="773.56451" y2="171.49181"><stop offset="0" stop-color="#727373"/><stop offset="1" stop-color="#AEAEAE"/></linearGradient></defs><path fill="url(#gradient_16)" d="M749.207 210.732L749.672 219.87C752.345 218.504 765.314 184.792 772.886 182.75C773.186 182.669 781.709 176.123 782.289 175.631C787.972 177.524 786.295 174.513 790.054 176.191C794.544 178.195 799.445 181.645 803.607 184.348C806.529 182.613 809.428 180.838 812.302 179.025C813.769 182.588 812.85 181.796 815.686 183.104C821.539 181.543 819.056 178.486 822.731 179.266C829.95 195.644 797.985 244.487 799.652 265.426L801.615 268.237C789.757 296.427 778.681 327.283 765.997 354.916C756.429 355.41 698.869 356.14 692.381 354.003C690.645 346.226 742.675 225.834 749.207 210.732Z"/><defs><linearGradient id="gradient_17" gradientUnits="userSpaceOnUse" x1="1845.0356" y1="363.17606" x2="1907.4642" y2="139.19765"><stop offset="0" stop-color="#989797"/><stop offset="1" stop-color="#CCCDCC"/></linearGradient></defs><path fill="url(#gradient_17)" d="M1778.44 15.1156C1800.16 14.229 1832.14 15.0715 1854.67 15.2073C1856.33 15.2172 1856.67 16.3911 1857.4 17.6759C1858.88 48.0524 1857.64 87.3587 1857.55 118.463L1857.84 224.67C1857.9 244.068 1857.47 266.471 1858.36 285.621C1869.76 286.524 1886.14 285.758 1897.96 285.965C1931.03 286.548 1965.95 284.801 1998.87 286.036C1994.22 299.417 1977.04 341.848 1970.94 353.94C1954.2 354.878 1785.92 355.365 1779.83 353.116C1777.46 343.108 1778.5 273.272 1778.73 257.853C1779.68 193.193 1777.61 126.67 1778.89 62.3046C1778.05 58.0927 1778.42 21.8712 1778.44 15.1156Z"/><path fill="#DCDDDB" d="M1778.44 15.1156C1800.16 14.229 1832.14 15.0715 1854.67 15.2073C1856.33 15.2172 1856.67 16.3911 1857.4 17.6759C1858.88 48.0524 1857.64 87.3587 1857.55 118.463C1855.37 120.16 1854.79 120.01 1854.69 123.177C1854.21 138.487 1854.45 154.732 1854.46 170.008C1854.39 198.358 1854.09 226.708 1853.55 255.053C1852.97 244.168 1847.49 141.843 1849.13 139.061C1846.84 122.465 1843.2 120.616 1827.05 118.353C1817.87 117.067 1804.63 116.062 1795.54 117.071C1787.42 117.972 1785.66 144.292 1782.77 146.389C1781.66 143.594 1782.24 134.886 1782.19 131.072C1781.88 109.77 1782.9 87.833 1781.52 66.6158C1781.43 65.3292 1779.76 63.2422 1778.89 62.3046C1778.05 58.0927 1778.42 21.8712 1778.44 15.1156Z"/><defs><linearGradient id="gradient_18" gradientUnits="userSpaceOnUse" x1="1994.6489" y1="544.96838" x2="2007.8788" y2="413.7995"><stop offset="0" stop-color="#F1F2EC" stop-opacity="0.98431373"/><stop offset="1" stop-color="#9D9A9E"/></linearGradient></defs><path fill="url(#gradient_18)" d="M1401.14 475.211C1405.6 468.012 1405.81 464.367 1414.99 464.401C1437.06 464.483 1459.12 464.791 1481.19 464.797L1638.03 464.737L2088.32 465.095C2088.77 465.392 2089.33 465.761 2089.99 466.201C2153.55 466.702 2253.04 466.403 2312.9 466.46L2428.31 467.612L2564.82 469.425C2580.4 469.545 2601.82 470.684 2616.39 470.079C2611.15 473.521 2588.85 470.665 2581.56 471.539C2576.01 472.206 2575.09 473.895 2569.47 474.651C2565.41 475.197 2557.91 474.903 2555.35 477.245L2555.38 479.055C2557.48 480.55 2579.67 483.245 2584.13 482.392C2586.49 481.939 2587.73 484.73 2591.97 483.781L2595.46 485.399C2588.37 485.756 2581.4 485.241 2574.57 485.517C2425.64 491.522 2275.73 490.186 2126.66 490.197L1785.99 490.706C1734.81 490.74 1682.35 491.345 1631.25 490.679C1633.26 489.207 1797.48 489.541 1814.7 489.357C1805.94 486.263 1761.19 489.275 1747.13 488.527C1719.25 487.044 1687.84 487.908 1659.55 486.816C1647.73 486.36 1656.53 487.082 1648.98 483.948C1646.03 489.96 1636.62 484.683 1630.1 484.991C1579.9 487.364 1530.07 489.56 1479.88 486.069C1470.2 485.395 1458.11 487.334 1448.66 485.488L1450.77 483.885L1449.9 482.893L1443.84 484.687L1444.14 484.69C1429.71 487.995 1428.22 486.491 1413.52 484.097C1413.07 485.686 1412.96 485.862 1411.89 487.124L1409.38 486.32C1406.29 482.898 1408.11 484.037 1407.61 477.887C1405.62 475.764 1403.97 475.72 1401.14 475.211Z"/><defs><linearGradient id="gradient_19" gradientUnits="userSpaceOnUse" x1="934.10181" y1="324.78571" x2="1000.9503" y2="181.95335"><stop offset="0" stop-color="#828181"/><stop offset="1" stop-color="#C0C0C1"/></linearGradient></defs><path fill="url(#gradient_19)" d="M937.692 233.838C937.917 233.768 937.97 233.756 938.21 233.656C938.897 233.368 939.302 232.932 939.794 232.399C942.387 229.591 926.726 189.476 928.652 180.585C928.89 179.486 931.852 175.931 932.489 174.317C932.048 172.985 931.684 172.382 932.102 171.061C940.756 171.435 950.42 172.078 958.983 171.587L960.15 168.249L961.919 167.837L965.575 171.907L966.433 171.436C966.183 169.452 966.05 169.05 967.038 167.326L969.579 167.67C977.037 176.458 981.818 181.45 987.792 191.427C989.306 189.513 989.248 186.196 993.149 184.071C993.553 183.851 994.311 180.984 994.542 180.241C1018.85 236.965 1043.64 299.172 1068.85 354.824C1042.36 354.998 1015.87 355.017 989.374 354.881C981.779 340.435 967.507 302.246 960.701 285.447C944.532 284.547 825.699 287.007 821.064 283.378C821.056 281.088 838.624 241.102 840.88 234.708C856.343 233.551 929.325 237.034 937.692 233.838Z"/><path fill="#BFBFBF" d="M994.542 180.241C1018.85 236.965 1043.64 299.172 1068.85 354.824C1042.36 354.998 1015.87 355.017 989.374 354.881C989.16 351.942 988.986 350.513 989.526 347.532C993.223 347.62 999.057 349.19 1002.52 349.089C1011.54 348.827 1052.42 352.189 1057.36 346.462C1057.58 339.205 1049.01 321.822 1045.88 314.289C1029.21 274.159 1010.85 228.215 987.792 191.427C989.306 189.513 989.248 186.196 993.149 184.071C993.553 183.851 994.311 180.984 994.542 180.241Z"/><defs><linearGradient id="gradient_20" gradientUnits="userSpaceOnUse" x1="2074.3999" y1="346.5011" x2="2081.9619" y2="166.90364"><stop offset="0" stop-color="#868685"/><stop offset="1" stop-color="#BFBFC0"/></linearGradient></defs><path fill="url(#gradient_20)" d="M2062.3 213.722C2069 201.066 2079.08 172.999 2086.26 157.71C2086.13 158.684 2085.53 163.259 2085.7 163.836C2087.92 171.519 2082.16 179.044 2084.69 186.102C2089.28 178.223 2095.41 172.46 2103.81 168.77C2104.9 169.03 2109.52 169.847 2110.26 170.12C2115.14 171.916 2138.7 169.155 2141.39 171.1C2145.22 181.801 2133.52 196.331 2142.8 205.444C2139.22 218.932 2084.24 349.41 2080.08 353.111C2072.91 354.91 2014.53 354.481 2005.27 353.848C2011.94 340.521 2017.65 324.504 2023.14 310.488C2031.63 288.885 2040.3 267.351 2049.15 245.89C2053.07 236.27 2058.08 222.756 2062.3 213.722Z"/><path fill="#BFBFBF" d="M2062.3 213.722C2069 201.066 2079.08 172.999 2086.26 157.71C2086.13 158.684 2085.53 163.259 2085.7 163.836C2087.92 171.519 2082.16 179.044 2084.69 186.102C2081.08 195.282 2073.85 202.897 2068.86 211.23C2066.72 214.798 2065.97 221.326 2063.17 225.78L2062.19 225.933C2062.17 222.186 2062.56 217.188 2062.3 213.722Z"/><path fill="#888787" d="M2088.32 465.095C2101.23 464.171 2119.42 464.742 2132.61 464.79L2205.05 464.888L2445.27 465.224L2601.78 465.765C2614.86 465.805 2664.42 465.087 2675.42 466.734C2675.55 473.835 2676.96 484.743 2672.63 489.708C2668.06 492.236 2476.74 491.394 2455.04 491.421L1668.39 492.044L1487.11 492.339C1477.8 492.355 1432.49 493.79 1425.26 491.958C1425.32 491.89 1425.37 491.813 1425.44 491.755C1427.5 490.03 1611.84 490.786 1631.25 490.679C1682.35 491.345 1734.81 490.74 1785.99 490.706L2126.66 490.197C2275.73 490.186 2425.64 491.522 2574.57 485.517C2581.4 485.241 2588.37 485.756 2595.46 485.399L2591.97 483.781C2587.73 484.73 2586.49 481.939 2584.13 482.392C2579.67 483.245 2557.48 480.55 2555.38 479.055L2555.35 477.245C2557.91 474.903 2565.41 475.197 2569.47 474.651C2575.09 473.895 2576.01 472.206 2581.56 471.539C2588.85 470.665 2611.15 473.521 2616.39 470.079C2601.82 470.684 2580.4 469.545 2564.82 469.425L2428.31 467.612L2312.9 466.46C2253.04 466.403 2153.55 466.702 2089.99 466.201C2089.33 465.761 2088.77 465.392 2088.32 465.095Z"/><path fill="#DCDDDB" d="M1401.14 475.211C1403.97 475.72 1405.62 475.764 1407.61 477.887C1408.11 484.037 1406.29 482.898 1409.38 486.32L1411.89 487.124C1412.96 485.862 1413.07 485.686 1413.52 484.097C1428.22 486.491 1429.71 487.995 1444.14 484.69L1443.84 484.687L1449.9 482.893L1450.77 483.885L1448.66 485.488C1458.11 487.334 1470.2 485.395 1479.88 486.069C1530.07 489.56 1579.9 487.364 1630.1 484.991C1636.62 484.683 1646.03 489.96 1648.98 483.948C1656.53 487.082 1647.73 486.36 1659.55 486.816C1687.84 487.908 1719.25 487.044 1747.13 488.527C1761.19 489.275 1805.94 486.263 1814.7 489.357C1797.48 489.541 1633.26 489.207 1631.25 490.679C1611.84 490.786 1427.5 490.03 1425.44 491.755C1425.37 491.813 1425.32 491.89 1425.26 491.958C1415.69 491.852 1405.87 492.63 1396.54 492.28C1395.3 492.234 1395.2 491.587 1394.38 490.423C1394.8 485.795 1398.81 479.714 1401.14 475.211Z"/><path fill="#DCDDDB" fill-opacity="0.98823529" d="M1504.35 290.979C1522.41 284.938 1555.64 270.9 1571.67 261.576L1575.94 262.078L1576.23 263.11C1573.26 266.855 1566.92 269.584 1562.98 272.536C1544.73 280.911 1524.13 288.144 1506.71 297.512C1503.2 299.401 1486.1 333.398 1482.91 339.016C1474.53 353.814 1464.89 368.291 1456.54 382.953L1456.66 384.707L1459.89 386.49C1457.14 388.018 1453.5 390.191 1450.75 391.526L1447.39 391.448L1446.28 390.23C1447.43 387.483 1448.8 385.062 1450.3 382.499C1468.25 351.835 1488.28 322.766 1504.35 290.979Z"/><path d="M1564.97 248.584C1579.68 241.592 1591.76 235.469 1605.74 227.126C1619.13 219.135 1633.22 209.558 1646.68 202.15C1639.03 212.676 1626.18 224.453 1615.99 232.474C1617.23 229.627 1618.88 227.378 1618.22 224.941C1612.65 224.774 1595.34 235.278 1590.74 238.711C1585.76 240.996 1569.37 249.17 1564.97 248.584Z"/><path d="M1562.74 84.6664L1568.12 102.207C1568.83 107.836 1571.59 122.122 1571.42 126.262C1566.21 122.789 1566.67 110.84 1563.97 104.072L1562.61 103.62C1557.05 109.599 1559.6 115.409 1552.48 120.34C1554.39 113.605 1555.71 106.873 1557.79 100.174C1559.35 95.2002 1560.97 89.5087 1562.74 84.6664Z"/><path d="M1590.74 238.711C1595.34 235.278 1612.65 224.774 1618.22 224.941C1618.88 227.378 1617.23 229.627 1615.99 232.474C1609.52 237.81 1605.72 240.568 1598.63 245.055C1598.58 243.235 1598.43 241.295 1598.32 239.467C1595.82 237.661 1594.54 238.472 1590.74 238.711Z"/></svg>