<svg width="230" height="312" viewBox="0 0 230 312" fill="none" xmlns="http://www.w3.org/2000/svg">
<g clip-path="url(#clip0_3_4)">
<path d="M210.884 0.0429688C211.778 4.65444 212.381 7.93175 212.813 12.6193C213.589 18.1561 218.71 49.5511 218.238 53.1421C218.96 57.4957 219.365 64.6547 219.571 69.2695C221.059 102.558 218.58 138.972 206.074 170.118C205.154 172.411 201.939 179.34 200.555 181.324C195.361 192.627 175.911 215.464 165.465 221.817L165.129 221.999C160.113 224.758 153.711 230.238 148.152 233.536C128.065 245.454 106.743 255.153 84.5609 262.464C82.2811 263.223 73.8784 265.974 71.9123 266.2C68.8378 268.395 51.7254 270.929 49.2343 272.832L46.9053 273.22C42.3141 273.367 42.6856 275.165 38.2789 273.523C36.8791 272.672 34.1392 271.458 32.5773 270.709C30.4038 270.296 28.2198 269.607 26.1021 269.29C25.0981 270.312 21.4251 274.27 20.673 274.823C19.3461 277.027 10.6829 289.117 10.4059 290.729C9.12692 292.561 6.83595 296.721 5.52607 297.892L4.90527 297.921C4.51414 297.17 4.47409 297.209 4.45572 296.376C5.01091 293.224 5.52083 290.063 5.98545 286.896L6.25582 282.184C7.54798 267.043 8.68722 251.89 9.67159 236.726C9.27719 230.588 10.2301 218.21 10.761 211.856C10.782 200.87 12.1503 183.954 14.2069 173.022C14.9879 163.872 20.9657 142.894 24.4077 134.81C46.5896 82.7193 99.0574 53.9073 147.191 29.7514C167.641 19.489 189.854 8.72516 210.884 0.0429688Z" fill="url(#paint0_linear_3_4)"/>
<path d="M14.2069 173.022C15.1572 176.42 12.8262 182.897 13.6025 184.027C15.0036 183.347 14.9104 182.997 16.3994 183.536C22.0117 185.562 27.9698 189.71 33.5335 191.548C40.8146 193.952 48.7861 195.317 56.0252 198.007C58.431 198.901 61.4983 197.514 63.6285 199.879C64.5046 202.283 61.8717 206.98 60.5237 208.956C54.6122 217.625 48.624 226.23 42.9074 235.033C35.1958 247.019 27.3739 258.934 19.4425 270.776C17.481 273.718 11.5957 283.067 9.37693 285.239C8.38993 283.727 12.267 247.196 12.1712 242.196C12.0925 238.105 12.4705 231.83 11.7998 227.254L11.828 227.481L11.3371 227.587C10.9027 229.2 9.98985 236.293 9.67157 236.726C9.27716 230.588 10.2301 218.21 10.761 211.856C10.782 200.87 12.1502 183.954 14.2069 173.022Z" fill="url(#paint1_linear_3_4)"/>
<path d="M119.69 119.988C118.603 115.091 127.199 105.242 127.245 115.546C127.252 116.979 127.365 118.14 127.803 119.519L127.642 120.824L127.31 119.775C126.727 120.739 126.392 127.856 126.037 129.797C123.48 143.793 116.155 155.119 109.523 167.227C107.297 171.289 96.4797 187.718 96.0124 190.518L96.3189 191.171C98.539 191.608 98.7247 190.315 100.508 191.016C100.814 192.007 101.285 194.141 102.006 194.67C103.009 194.204 102.611 194.562 103.129 193.456C102.9 192.842 102.639 192.331 102.667 191.686L103.099 190.645L103.639 190.782L103.865 191.209C106.612 196.327 112.581 196.062 117.665 195.22C105.01 202.157 98.1125 204.042 86.0296 209.288C82.6473 213.639 47.8365 269.758 46.9052 273.22C42.3141 273.367 42.6856 275.165 38.2789 273.523C36.8791 272.672 34.1392 271.458 32.5773 270.709C52.0456 240.173 71.1235 209.389 89.8063 178.366C94.1494 171.015 98.6191 161.675 102.916 154.306L103.154 153.903C104.365 152.638 110.021 147.806 110.389 147.21C113.031 142.938 120.655 123.936 119.69 119.988Z" fill="#DEDEDE"/>
<path d="M111.796 116.657C112.673 120.013 108.435 124.229 110.117 126.075C110.71 123.122 112.108 120.573 113.194 117.811C113.594 116.796 113.542 115.872 114.04 114.676L114.29 114.757C114.196 117.491 113.578 117.697 113.346 119.501C112.284 127.728 109.069 136.053 106.696 144.013C105.821 146.948 103.66 150.948 103.154 153.903L102.916 154.306C98.619 161.675 94.1494 171.015 89.8063 178.366C71.1235 209.389 52.0456 240.173 32.5773 270.709C30.4038 270.296 28.2198 269.607 26.1021 269.29C25.098 270.312 21.425 274.27 20.673 274.823C21.4605 272.609 24.8887 267.938 26.2865 265.774C49.4495 229.915 72.9636 194.132 93.9446 156.93C95.1829 154.734 96.5768 152.109 97.5198 149.801C103.708 138.081 107.247 128.997 111.796 116.657Z" fill="#777677"/>
<path d="M107.734 186.176C133.965 176.389 149.302 167.906 172.704 153.462C171.589 155.344 170.085 157.172 168.735 158.911C161.716 168.166 146.397 181.278 136.169 186.783C132.867 188.928 129.494 190.835 126.083 192.796C122.715 192.172 121.317 193.708 117.665 195.22C112.581 196.062 106.612 196.327 103.865 191.209L103.639 190.782L103.099 190.645L102.667 191.686L102.231 190.203L101.213 189.714L100.653 189.417C101.415 188.321 106.148 186.747 107.734 186.176Z" fill="url(#paint2_linear_3_4)"/>
<path d="M105.791 187.827C107.442 191.273 112.711 193.987 116.016 191.833C115.636 190.929 115.202 191.943 114.309 191.083L114.815 190.829C115.934 191.291 117.016 191.887 118.175 191.476C121.882 190.163 126.137 188.796 129.609 186.997L129.019 186.174C130.817 186.232 134.795 185.444 135.518 185.636L136.169 186.783C132.867 188.928 129.494 190.835 126.083 192.796C122.715 192.172 121.317 193.708 117.665 195.22C112.581 196.062 106.612 196.327 103.865 191.209L103.639 190.782L103.099 190.645L102.667 191.686L102.231 190.203L101.213 189.714C102.522 189.099 104.409 188.393 105.791 187.827Z" fill="#A6A6A5"/>
<path d="M101.213 189.714L100.653 189.417C101.415 188.321 106.148 186.747 107.734 186.176L109.815 187.049C109.405 187.832 109.428 187.845 108.763 188.499L109.88 189.245L109.874 189.933C108.276 189.701 107.293 188.66 105.791 187.827C104.409 188.393 102.522 189.099 101.213 189.714Z" fill="#9E9D9D"/>
<path d="M136.869 179.33L137.485 179.323L137.362 179.787C136.017 180.673 135.728 180.901 134.099 181.325C132.995 181.548 133.482 181.636 132.575 181.25C133.794 180.214 135.337 179.841 136.869 179.33Z" fill="#9E9D9D"/>
<path d="M111.796 116.657C115.047 105.327 118.594 94.0705 121.847 82.6058C124.767 87.5651 127.585 97.1542 128.404 102.811C128.518 105.714 128.33 108.238 128.041 111.121C128.039 113.539 128.148 117.228 127.803 119.519C127.365 118.14 127.252 116.979 127.245 115.546C127.199 105.242 118.603 115.091 119.69 119.988C120.655 123.936 113.031 142.938 110.389 147.21C110.021 147.806 104.365 152.638 103.154 153.903C103.66 150.948 105.821 146.948 106.696 144.013C109.069 136.053 112.284 127.728 113.346 119.501C113.578 117.697 114.196 117.491 114.29 114.757L114.04 114.676C113.542 115.872 113.594 116.796 113.194 117.811C112.108 120.573 110.71 123.122 110.117 126.075C108.435 124.229 112.673 120.013 111.796 116.657Z" fill="url(#paint3_linear_3_4)"/>
<path d="M115.718 123.717C116.682 119.392 116.862 116.988 119.104 113.212L119.065 113.434C121.598 110.204 124.367 110.023 128.041 111.121C128.039 113.539 128.148 117.228 127.803 119.519C127.365 118.14 127.252 116.979 127.245 115.546C127.199 105.242 118.603 115.091 119.69 119.988C118.889 120.461 116.522 122.923 115.718 123.717Z" fill="#A6A6A5"/>
<path d="M97.5198 149.801C96.9082 149.349 97.1116 149.489 96.7034 148.767C96.6142 146.496 104.901 128.405 106.385 124.33C110.915 111.895 114.363 99.1689 118.174 86.4868C118.774 84.4918 118.378 80.156 120.957 80.1429C130.343 86.752 132.415 107.168 131.769 117.739C131.506 122.046 128.081 140.579 125.084 143.18C124.639 142.896 124.629 143.063 124.786 142.685C132.676 123.785 133.738 107.8 126.5 88.2659L126.385 88.9517C125.802 92.6976 128.271 97.2224 128.906 101.376C131.514 118.436 128.143 132.241 121.462 147.729L120.976 147.895L120.945 147.323C124.082 141.928 126.764 133.179 127.772 127.014C126.906 125.511 127.469 122.757 127.642 120.824L127.803 119.519C128.148 117.228 128.039 113.539 128.041 111.121C128.33 108.238 128.518 105.714 128.404 102.811C127.585 97.1542 124.767 87.5651 121.847 82.6058C118.594 94.0705 115.047 105.327 111.796 116.657C107.247 128.997 103.708 138.081 97.5198 149.801Z" fill="#DEDEDE"/>
<path d="M128.404 102.811C129.862 109.911 128.919 119.883 127.772 127.014C126.906 125.511 127.469 122.757 127.642 120.824L127.803 119.519C128.148 117.228 128.039 113.539 128.041 111.121C128.33 108.238 128.518 105.714 128.404 102.811Z" fill="#9E9D9D"/>
<path d="M200.555 181.324L200.142 180.829C206.033 168.834 211.215 156.524 213.445 143.221C213.614 142.218 212.737 140.696 213.124 139.81C213.44 139.09 213.401 138.838 213.464 138.071C213.377 138.285 213.027 139.09 213.004 139.233C210.852 152.647 206.115 163.787 200.806 176.306L200.477 176.314C200.694 174.761 201.705 172.214 202.41 170.758C210.251 154.56 213.29 136.197 215.385 118.422C216.705 106.903 217.359 95.3193 217.343 83.7253C217.368 73.2345 215.675 63.3238 218.238 53.1421C218.96 57.4957 219.365 64.6547 219.571 69.2695C221.059 102.558 218.58 138.972 206.074 170.118C205.154 172.411 201.939 179.34 200.555 181.324Z" fill="#DEDEDE"/>
<path d="M168.735 158.911L170.133 159.462C171.666 166.585 134.8 193.028 126.083 192.796C129.494 190.835 132.867 188.928 136.169 186.783C146.397 181.278 161.716 168.166 168.735 158.911Z" fill="#DEDEDE"/>
<path d="M79.534 224.76C79.0595 227.749 80.8786 227.779 83.3954 228.297C94.8148 230.646 106.092 233.543 117.319 236.668C122.102 237.999 127.535 238.19 132.069 240.133C127.349 242.108 126.328 243.187 122.624 244.923C115.245 248.323 107.709 251.372 100.042 254.062C95.429 256.481 59.5512 267.599 55.7508 266.627C55.195 263.653 62.5371 252.7 64.5124 249.44L79.534 224.76Z" fill="url(#paint4_linear_3_4)"/>
<path d="M212.813 12.6194L213.544 13.521L213.952 13.2231C222.176 19.0191 223.426 58.5076 224.13 69.0673C227.269 116.176 226.877 163.595 198.431 203.99C166.763 248.961 111.88 266.555 62.356 284.588C54.5256 287.44 46.0344 276.571 40.8842 275.118C29.0408 277.875 20.318 316.837 3.73714 303.787C3.60326 301.591 3.70564 300.711 3.97732 298.507L4.24901 299.481C6.33786 300.096 6.0924 300.353 7.69955 301.538C13.3354 305.689 19.224 297.1 21.95 293.498C29.4024 283.584 27.0891 281.242 38.2789 273.523C42.6856 275.165 42.3141 273.367 46.9052 273.22L49.2343 272.832C49.859 272.819 51.9407 272.586 52.3036 273.099C54.4016 276.064 56.8087 280.625 60.7114 281.272C62.3875 281.55 66.0664 279.991 67.1958 278.732C67.8337 278.55 73.1054 276.31 74.2472 275.867C80.5748 273.437 86.8768 270.944 93.1545 268.389C100.089 265.534 113.113 260.999 119.034 258.138C131.153 252.283 147.621 239.231 156.987 229.59C159.181 227.332 164.093 223.692 165.465 221.817C175.911 215.464 195.361 192.627 200.555 181.324C201.939 179.34 205.154 172.411 206.074 170.118C218.58 138.972 221.059 102.558 219.571 69.2695C219.365 64.6547 218.96 57.4957 218.238 53.1421C218.71 49.5511 213.589 18.1561 212.813 12.6194Z" fill="#9E9D9D" fill-opacity="0.435294"/>
<path d="M71.9123 266.2C73.8785 265.974 82.2811 263.223 84.5609 262.464C106.743 255.153 128.065 245.454 148.152 233.536C153.711 230.238 160.113 224.758 165.129 221.999L165.465 221.817C164.093 223.692 159.181 227.332 156.987 229.59C147.621 239.231 131.153 252.282 119.034 258.138C113.113 260.999 100.089 265.534 93.1545 268.389C86.8768 270.944 80.5748 273.437 74.2473 275.867C73.1054 276.31 67.8337 278.55 67.1959 278.732C66.8677 273.95 71.1859 271.601 74.6778 269.504L74.6371 269.184C73.6396 269.042 73.0116 269.006 72.079 268.64C72.417 268.349 72.5614 268.239 72.9407 267.979L73.2694 267.758C72.5633 267.189 72.5266 267.153 72.0265 266.38L71.9123 266.2Z" fill="#777677" fill-opacity="0.819608"/>
<path d="M3.73711 303.787C3.40768 303.645 2.47251 303.026 2.11419 302.803C-0.756901 295.514 0.618596 285.971 1.29913 278.396C1.91338 270.917 2.62147 263.446 3.42341 255.985C3.70822 253.316 3.46149 245.876 4.94461 244.171L5.36921 244.617C5.16118 246.107 4.9505 247.125 4.6086 248.586C5.16247 249.615 5.11589 250.306 6.00839 251.04C7.43311 250.553 4.77857 234.059 5.63038 230.915C6.52682 227.605 5.79183 212.09 10.761 211.856C10.2301 218.21 9.27716 230.588 9.67156 236.726C8.68719 251.89 7.54795 267.043 6.25579 282.184C4.69654 280.769 5.50242 280.802 4.97545 278.281C4.31855 278.854 4.14201 279.995 4.21945 280.799C4.6237 284.995 1.71652 284.81 2.70746 289.477C4.49836 288.021 3.22064 288.086 5.98542 286.896C5.5208 290.063 5.01088 293.224 4.45569 296.376L3.9773 298.507C3.70561 300.711 3.60324 301.591 3.73711 303.787ZM7.14698 258.923C7.34254 256.334 7.98829 246.882 6.91795 244.858C6.95798 248.067 6.09107 257.178 7.14698 258.923Z" fill="#DEDEDE" fill-opacity="0.0156863"/>
<path d="M26.1021 269.29C28.2198 269.607 30.4038 270.296 32.5773 270.709C34.1392 271.458 36.8791 272.672 38.2789 273.523C27.0892 281.242 29.4024 283.584 21.95 293.498C19.8514 293.54 18.0808 293.427 15.9821 293.294L16.1652 293.109C14.7759 294.186 11.7375 295.771 10.0772 294.737C9.33168 293.372 9.93017 292.562 10.4059 290.729C10.6829 289.117 19.3461 277.027 20.673 274.823C21.4251 274.27 25.0981 270.312 26.1021 269.29Z" fill="url(#paint5_linear_3_4)"/>
<path d="M71.9123 266.2L72.0265 266.38C72.5266 267.153 72.5633 267.189 73.2694 267.758L72.9407 267.979C72.5614 268.239 72.417 268.349 72.079 268.64C73.0116 269.006 73.6396 269.042 74.6371 269.184L74.6777 269.504C71.1858 271.601 66.8677 273.95 67.1958 278.732C66.0664 279.991 62.3875 281.55 60.7114 281.272C56.8087 280.625 54.4016 276.064 52.3036 273.099C51.9407 272.586 49.859 272.819 49.2343 272.832C51.7254 270.929 68.8378 268.395 71.9123 266.2Z" fill="url(#paint6_linear_3_4)"/>
<path d="M10.4059 290.729C9.93016 292.562 9.33168 293.372 10.0772 294.737C11.7375 295.771 14.7759 294.186 16.1652 293.109L15.9821 293.294C18.0808 293.427 19.8514 293.54 21.95 293.498C19.224 297.1 13.3354 305.689 7.69955 301.538C6.0924 300.353 6.33786 300.096 4.24901 299.481L3.97733 298.507L4.45571 296.376C4.47409 297.209 4.51414 297.17 4.90526 297.921L5.52607 297.892C6.83594 296.721 9.12691 292.561 10.4059 290.729Z" fill="url(#paint7_linear_3_4)"/>
</g>
<defs>
<linearGradient id="paint0_linear_3_4" x1="71.4218" y1="314.45" x2="159.454" y2="-12.4544" gradientUnits="userSpaceOnUse">
<stop stop-color="#7F7E7E"/>
<stop offset="1" stop-color="#F4F3F3"/>
</linearGradient>
<linearGradient id="paint1_linear_3_4" x1="7.02826" y1="282.789" x2="39.0033" y2="190.916" gradientUnits="userSpaceOnUse">
<stop stop-color="#676666"/>
<stop offset="1" stop-color="#959494"/>
</linearGradient>
<linearGradient id="paint2_linear_3_4" x1="136.737" y1="167.476" x2="142.647" y2="183.307" gradientUnits="userSpaceOnUse">
<stop stop-color="#565656"/>
<stop offset="1" stop-color="#A09FA0"/>
</linearGradient>
<linearGradient id="paint3_linear_3_4" x1="108.437" y1="97.1766" x2="124.093" y2="114.2" gradientUnits="userSpaceOnUse">
<stop stop-color="#5A595A"/>
<stop offset="1" stop-color="#AAAAAA"/>
</linearGradient>
<linearGradient id="paint4_linear_3_4" x1="87.3707" y1="274.552" x2="99.0669" y2="230.939" gradientUnits="userSpaceOnUse">
<stop stop-color="#7E7D7E"/>
<stop offset="1" stop-color="#949493"/>
</linearGradient>
<linearGradient id="paint5_linear_3_4" x1="20.9322" y1="289.898" x2="13.867" y2="278.598" gradientUnits="userSpaceOnUse">
<stop stop-color="#A8A8A7" stop-opacity="0.694118"/>
<stop offset="1" stop-color="#787778" stop-opacity="0.85098"/>
</linearGradient>
<linearGradient id="paint6_linear_3_4" x1="64.6773" y1="277.526" x2="66.9102" y2="267.335" gradientUnits="userSpaceOnUse">
<stop stop-color="#9B9A9A" stop-opacity="0.654902"/>
<stop offset="1" stop-color="#6E6D6E" stop-opacity="0.847059"/>
</linearGradient>
<linearGradient id="paint7_linear_3_4" x1="13.0569" y1="297.169" x2="12.2164" y2="293.46" gradientUnits="userSpaceOnUse">
<stop stop-color="#B3B3B3" stop-opacity="0.654902"/>
<stop offset="1" stop-color="#A7A7A7" stop-opacity="0.690196"/>
</linearGradient>
<clipPath id="clip0_3_4">
<rect width="230" height="312" fill="white"/>
</clipPath>
</defs>
</svg>
